<svg width="34" height="34" viewBox="0 0 34 34" fill="none" xmlns="http://www.w3.org/2000/svg">
<path d="M0 15.1027H15.1027V0H0V15.1027ZM3.77568 3.77568H11.327V11.327H3.77568V3.77568ZM0 33.9811H15.1027V18.8784H0V33.9811ZM3.77568 22.6541H11.327V30.2054H3.77568V22.6541ZM18.8784 0V15.1027H33.9811V0H18.8784ZM30.2054 11.327H22.6541V3.77568H30.2054V11.327ZM18.8973 18.8784H22.673V22.6541H18.8973V18.8784ZM22.673 22.6541H26.4486V26.4298H22.673V22.6541ZM18.8973 26.4298H22.673V30.2054H18.8973V26.4298ZM26.4486 26.4298H30.2243V30.2054H26.4486V26.4298ZM30.2243 30.2054H34V33.9811H30.2243V30.2054ZM22.673 30.2054H26.4486V33.9811H22.673V30.2054ZM26.4486 18.8784H30.2243V22.6541H26.4486V18.8784ZM30.2243 22.6541H34V26.4298H30.2243V22.6541Z" fill="#4A4A4A"/>
</svg>