<svg xmlns="http://www.w3.org/2000/svg" width="1em" height="1em" viewBox="0 0 24 24"><path fill="white" fill-rule="evenodd" d="M13.354 8.75H4a.75.75 0 0 1 0-1.5h9.354a2.751 2.751 0 0 1 5.293 0H20a.75.75 0 0 1 0 1.5h-1.354a2.751 2.751 0 0 1-5.292 0M14.75 8a1.25 1.25 0 1 1 2.5 0a1.25 1.25 0 0 1-2.5 0m-4.103 8.75H20a.75.75 0 0 0 0-1.5h-9.353a2.751 2.751 0 0 0-5.293 0H4a.75.75 0 0 0 0 1.5h1.354a2.751 2.751 0 0 0 5.292 0M6.75 16a1.25 1.25 0 1 1 2.5 0a1.25 1.25 0 0 1-2.5 0" clip-rule="evenodd"/></svg>