<svg height="200px" width="200px" version="1.1" id="Layer_1" xmlns="http://www.w3.org/2000/svg" xmlns:xlink="http://www.w3.org/1999/xlink" viewBox="0 0 512.00 512.00" xml:space="preserve" fill="#000000" stroke="#000000" stroke-width="0.00512" transform="matrix(1, 0, 0, 1, 0, 0)rotate(0)"><g id="SVGRepo_bgCarrier" stroke-width="0"></g><g id="SVGRepo_tracerCarrier" stroke-linecap="round" stroke-linejoin="round" stroke="#CCCCCC" stroke-width="2.048"></g><g id="SVGRepo_iconCarrier"> <g> <circle style="fill:#D1E5F5;" cx="256" cy="120.889" r="120.889"></circle> <path style="fill:#D1E5F5;" d="M412.444,512c31.418,0,56.889-25.471,56.889-56.889c0-117.82-95.514-213.333-213.333-213.333 S42.667,337.291,42.667,455.111c0,31.418,25.471,56.889,56.889,56.889H412.444z"></path> </g> <g> <polygon style="fill:#D1E5F5;" points="255.999,241.778 255.999,241.778 256,241.778 "></polygon> <path style="fill:#D1E5F5;" d="M376.889,120.889C376.889,54.124,322.765,0,256,0h-0.001v241.778H256 C322.765,241.778,376.889,187.654,376.889,120.889z"></path> <path style="fill:#D1E5F5;" d="M256,241.778L256,241.778L255.999,512h156.446c31.418,0,56.889-25.471,56.889-56.889 C469.333,337.291,373.82,241.778,256,241.778z"></path> </g> </g></svg>