<?xml version="1.0" encoding="iso-8859-1"?>

<!DOCTYPE svg PUBLIC "-//W3C//DTD SVG 1.1//EN" "http://www.w3.org/Graphics/SVG/1.1/DTD/svg11.dtd">
<!-- Uploaded to: SVG Repo, www.svgrepo.com, Generator: SVG Repo Mixer Tools -->
<svg version="1.1" xmlns="http://www.w3.org/2000/svg" xmlns:xlink="http://www.w3.org/1999/xlink" 
	 viewBox="0 0 512 512" xml:space="preserve">
<g id="balls_x5F_1_x5F_golf">
	<g>
		<g>
			<defs>
				<circle id="SVGID_1_" cx="256" cy="256" r="200"/>
			</defs>
			<use xlink:href="#SVGID_1_"  style="overflow:visible;fill:#EEEEEE;"/>
			<clipPath id="SVGID_2_">
				<use xlink:href="#SVGID_1_"  style="overflow:visible;"/>
			</clipPath>
			
				<rect x="-594.54" y="13" style="clip-path:url(#SVGID_2_);fill:none;stroke:#BF360C;stroke-miterlimit:10;" width="512" height="512"/>
			<path style="clip-path:url(#SVGID_2_);fill:#E0E0E0;" d="M226.713,351.104l-6.107-10.536c-1.072-1.85-1.072-4.132,0-5.982
				l6.107-10.536c1.067-1.84,3.033-2.973,5.16-2.973h12.255c2.127,0,4.093,1.133,5.16,2.973l6.107,10.536
				c1.072,1.85,1.072,4.132,0,5.982l-6.107,10.536c-1.067,1.84-3.033,2.973-5.16,2.973h-12.255
				C229.745,354.077,227.779,352.944,226.713,351.104z"/>
			<path style="clip-path:url(#SVGID_2_);fill:#E0E0E0;" d="M301.308,351.104l-6.107-10.536c-1.072-1.85-1.072-4.132,0-5.982
				l6.107-10.536c1.067-1.84,3.033-2.973,5.16-2.973h12.255c2.127,0,4.093,1.133,5.16,2.973l6.107,10.536
				c1.072,1.85,1.072,4.132,0,5.982l-6.107,10.536c-1.067,1.84-3.033,2.973-5.16,2.973h-12.255
				C304.34,354.077,302.374,352.944,301.308,351.104z"/>
			<path style="clip-path:url(#SVGID_2_);fill:#E0E0E0;" d="M375.903,351.104l-6.107-10.536c-1.072-1.85-1.072-4.132,0-5.982
				l6.107-10.536c1.067-1.84,3.033-2.973,5.16-2.973h12.255c2.127,0,4.093,1.133,5.16,2.973l6.107,10.536
				c1.072,1.85,1.072,4.132,0,5.982l-6.107,10.536c-1.067,1.84-3.033,2.973-5.16,2.973h-12.255
				C378.935,354.077,376.969,352.944,375.903,351.104z"/>
			<path style="clip-path:url(#SVGID_2_);fill:#E0E0E0;" d="M152.118,351.104l-6.107-10.536c-1.072-1.85-1.072-4.132,0-5.982
				l6.107-10.536c1.067-1.84,3.033-2.973,5.16-2.973h12.255c2.127,0,4.093,1.133,5.16,2.973l6.107,10.536
				c1.072,1.85,1.072,4.132,0,5.982l-6.107,10.536c-1.067,1.84-3.033,2.973-5.16,2.973h-12.255
				C155.15,354.077,153.184,352.944,152.118,351.104z"/>
			<path style="clip-path:url(#SVGID_2_);fill:#E0E0E0;" d="M77.523,351.104l-6.107-10.536c-1.072-1.85-1.072-4.132,0-5.982
				l6.107-10.536c1.067-1.84,3.033-2.973,5.16-2.973h12.255c2.127,0,4.093,1.133,5.16,2.973l6.107,10.536
				c1.072,1.85,1.072,4.132,0,5.982l-6.107,10.536c-1.067,1.84-3.033,2.973-5.16,2.973H82.682
				C80.555,354.077,78.589,352.944,77.523,351.104z"/>
			<path style="clip-path:url(#SVGID_2_);fill:#E0E0E0;" d="M263.713,330.445l-6.107-10.536c-1.072-1.85-1.072-4.132,0-5.982
				l6.107-10.536c1.067-1.84,3.033-2.973,5.16-2.973h12.255c2.127,0,4.093,1.133,5.16,2.973l6.107,10.536
				c1.072,1.85,1.072,4.132,0,5.982l-6.107,10.536c-1.067,1.84-3.033,2.973-5.16,2.973h-12.255
				C266.745,333.419,264.779,332.286,263.713,330.445z"/>
			<path style="clip-path:url(#SVGID_2_);fill:#E0E0E0;" d="M338.308,330.445l-6.107-10.536c-1.072-1.85-1.072-4.132,0-5.982
				l6.107-10.536c1.067-1.84,3.033-2.973,5.16-2.973h12.255c2.127,0,4.093,1.133,5.16,2.973l6.107,10.536
				c1.072,1.85,1.072,4.132,0,5.982l-6.107,10.536c-1.067,1.84-3.033,2.973-5.16,2.973h-12.255
				C341.34,333.419,339.374,332.286,338.308,330.445z"/>
			<path style="clip-path:url(#SVGID_2_);fill:#E0E0E0;" d="M412.903,330.445l-6.107-10.536c-1.072-1.85-1.072-4.132,0-5.982
				l6.107-10.536c1.067-1.84,3.033-2.973,5.16-2.973h12.255c2.127,0,4.093,1.133,5.16,2.973l6.107,10.536
				c1.072,1.85,1.072,4.132,0,5.982l-6.107,10.536c-1.067,1.84-3.033,2.973-5.16,2.973h-12.255
				C415.935,333.419,413.969,332.286,412.903,330.445z"/>
			<path style="clip-path:url(#SVGID_2_);fill:#E0E0E0;" d="M189.118,330.445l-6.107-10.536c-1.072-1.85-1.072-4.132,0-5.982
				l6.107-10.536c1.067-1.84,3.033-2.973,5.16-2.973h12.255c2.127,0,4.093,1.133,5.16,2.973l6.107,10.536
				c1.072,1.85,1.072,4.132,0,5.982l-6.107,10.536c-1.067,1.84-3.033,2.973-5.16,2.973h-12.255
				C192.15,333.419,190.184,332.286,189.118,330.445z"/>
			<path style="clip-path:url(#SVGID_2_);fill:#E0E0E0;" d="M114.523,330.445l-6.107-10.536c-1.072-1.85-1.072-4.132,0-5.982
				l6.107-10.536c1.067-1.84,3.033-2.973,5.16-2.973h12.255c2.127,0,4.093,1.133,5.16,2.973l6.107,10.536
				c1.072,1.85,1.072,4.132,0,5.982l-6.107,10.536c-1.067,1.84-3.033,2.973-5.16,2.973h-12.255
				C117.555,333.419,115.589,332.286,114.523,330.445z"/>
			<path style="clip-path:url(#SVGID_2_);fill:#E0E0E0;" d="M226.713,309.812l-6.107-10.536c-1.072-1.85-1.072-4.132,0-5.982
				l6.107-10.536c1.067-1.84,3.033-2.973,5.16-2.973h12.255c2.127,0,4.093,1.133,5.16,2.973l6.107,10.536
				c1.072,1.85,1.072,4.132,0,5.982l-6.107,10.536c-1.067,1.84-3.033,2.973-5.16,2.973h-12.255
				C229.745,312.785,227.779,311.652,226.713,309.812z"/>
			<path style="clip-path:url(#SVGID_2_);fill:#E0E0E0;" d="M301.308,309.812l-6.107-10.536c-1.072-1.85-1.072-4.132,0-5.982
				l6.107-10.536c1.067-1.84,3.033-2.973,5.16-2.973h12.255c2.127,0,4.093,1.133,5.16,2.973l6.107,10.536
				c1.072,1.85,1.072,4.132,0,5.982l-6.107,10.536c-1.067,1.84-3.033,2.973-5.16,2.973h-12.255
				C304.34,312.785,302.374,311.652,301.308,309.812z"/>
			<path style="clip-path:url(#SVGID_2_);fill:#E0E0E0;" d="M375.903,309.812l-6.107-10.536c-1.072-1.85-1.072-4.132,0-5.982
				l6.107-10.536c1.067-1.84,3.033-2.973,5.16-2.973h12.255c2.127,0,4.093,1.133,5.16,2.973l6.107,10.536
				c1.072,1.85,1.072,4.132,0,5.982l-6.107,10.536c-1.067,1.84-3.033,2.973-5.16,2.973h-12.255
				C378.935,312.785,376.969,311.652,375.903,309.812z"/>
			<path style="clip-path:url(#SVGID_2_);fill:#E0E0E0;" d="M152.118,309.812l-6.107-10.536c-1.072-1.85-1.072-4.132,0-5.982
				l6.107-10.536c1.067-1.84,3.033-2.973,5.16-2.973h12.255c2.127,0,4.093,1.133,5.16,2.973l6.107,10.536
				c1.072,1.85,1.072,4.132,0,5.982l-6.107,10.536c-1.067,1.84-3.033,2.973-5.16,2.973h-12.255
				C155.15,312.785,153.184,311.652,152.118,309.812z"/>
			<path style="clip-path:url(#SVGID_2_);fill:#E0E0E0;" d="M77.523,309.812l-6.107-10.536c-1.072-1.85-1.072-4.132,0-5.982
				l6.107-10.536c1.067-1.84,3.033-2.973,5.16-2.973h12.255c2.127,0,4.093,1.133,5.16,2.973l6.107,10.536
				c1.072,1.85,1.072,4.132,0,5.982l-6.107,10.536c-1.067,1.84-3.033,2.973-5.16,2.973H82.682
				C80.555,312.785,78.589,311.652,77.523,309.812z"/>
			<path style="clip-path:url(#SVGID_2_);fill:#E0E0E0;" d="M263.713,289.162l-6.107-10.536c-1.072-1.85-1.072-4.132,0-5.982
				l6.107-10.536c1.067-1.84,3.033-2.973,5.16-2.973h12.255c2.127,0,4.093,1.133,5.16,2.973l6.107,10.536
				c1.072,1.85,1.072,4.132,0,5.982l-6.107,10.536c-1.067,1.84-3.033,2.973-5.16,2.973h-12.255
				C266.745,292.135,264.779,291.002,263.713,289.162z"/>
			<path style="clip-path:url(#SVGID_2_);fill:#E0E0E0;" d="M338.308,289.162l-6.107-10.536c-1.072-1.85-1.072-4.132,0-5.982
				l6.107-10.536c1.067-1.84,3.033-2.973,5.16-2.973h12.255c2.127,0,4.093,1.133,5.16,2.973l6.107,10.536
				c1.072,1.85,1.072,4.132,0,5.982l-6.107,10.536c-1.067,1.84-3.033,2.973-5.16,2.973h-12.255
				C341.34,292.135,339.374,291.002,338.308,289.162z"/>
			<path style="clip-path:url(#SVGID_2_);fill:#E0E0E0;" d="M412.903,289.162l-6.107-10.536c-1.072-1.85-1.072-4.132,0-5.982
				l6.107-10.536c1.067-1.84,3.033-2.973,5.16-2.973h12.255c2.127,0,4.093,1.133,5.16,2.973l6.107,10.536
				c1.072,1.85,1.072,4.132,0,5.982l-6.107,10.536c-1.067,1.84-3.033,2.973-5.16,2.973h-12.255
				C415.935,292.135,413.969,291.002,412.903,289.162z"/>
			<path style="clip-path:url(#SVGID_2_);fill:#E0E0E0;" d="M189.118,289.162l-6.107-10.536c-1.072-1.85-1.072-4.132,0-5.982
				l6.107-10.536c1.067-1.84,3.033-2.973,5.16-2.973h12.255c2.127,0,4.093,1.133,5.16,2.973l6.107,10.536
				c1.072,1.85,1.072,4.132,0,5.982l-6.107,10.536c-1.067,1.84-3.033,2.973-5.16,2.973h-12.255
				C192.15,292.135,190.184,291.002,189.118,289.162z"/>
			<path style="clip-path:url(#SVGID_2_);fill:#E0E0E0;" d="M114.523,289.162l-6.107-10.536c-1.072-1.85-1.072-4.132,0-5.982
				l6.107-10.536c1.067-1.84,3.033-2.973,5.16-2.973h12.255c2.127,0,4.093,1.133,5.16,2.973l6.107,10.536
				c1.072,1.85,1.072,4.132,0,5.982l-6.107,10.536c-1.067,1.84-3.033,2.973-5.16,2.973h-12.255
				C117.555,292.135,115.589,291.002,114.523,289.162z"/>
			<path style="clip-path:url(#SVGID_2_);fill:#E0E0E0;" d="M226.713,268.521l-6.107-10.536c-1.072-1.85-1.072-4.132,0-5.982
				l6.107-10.536c1.067-1.84,3.033-2.973,5.16-2.973h12.255c2.127,0,4.093,1.133,5.16,2.973l6.107,10.536
				c1.072,1.85,1.072,4.132,0,5.982l-6.107,10.536c-1.067,1.84-3.033,2.973-5.16,2.973h-12.255
				C229.745,271.494,227.779,270.361,226.713,268.521z"/>
			<path style="clip-path:url(#SVGID_2_);fill:#E0E0E0;" d="M301.308,268.521l-6.107-10.536c-1.072-1.85-1.072-4.132,0-5.982
				l6.107-10.536c1.067-1.84,3.033-2.973,5.16-2.973h12.255c2.127,0,4.093,1.133,5.16,2.973l6.107,10.536
				c1.072,1.85,1.072,4.132,0,5.982l-6.107,10.536c-1.067,1.84-3.033,2.973-5.16,2.973h-12.255
				C304.34,271.494,302.374,270.361,301.308,268.521z"/>
			<path style="clip-path:url(#SVGID_2_);fill:#E0E0E0;" d="M375.903,268.521l-6.107-10.536c-1.072-1.85-1.072-4.132,0-5.982
				l6.107-10.536c1.067-1.84,3.033-2.973,5.16-2.973h12.255c2.127,0,4.093,1.133,5.16,2.973l6.107,10.536
				c1.072,1.85,1.072,4.132,0,5.982l-6.107,10.536c-1.067,1.84-3.033,2.973-5.16,2.973h-12.255
				C378.935,271.494,376.969,270.361,375.903,268.521z"/>
			<path style="clip-path:url(#SVGID_2_);fill:#E0E0E0;" d="M152.118,268.521l-6.107-10.536c-1.072-1.85-1.072-4.132,0-5.982
				l6.107-10.536c1.067-1.84,3.033-2.973,5.16-2.973h12.255c2.127,0,4.093,1.133,5.16,2.973l6.107,10.536
				c1.072,1.85,1.072,4.132,0,5.982l-6.107,10.536c-1.067,1.84-3.033,2.973-5.16,2.973h-12.255
				C155.15,271.494,153.184,270.361,152.118,268.521z"/>
			<path style="clip-path:url(#SVGID_2_);fill:#E0E0E0;" d="M77.523,268.521l-6.107-10.536c-1.072-1.85-1.072-4.132,0-5.982
				l6.107-10.536c1.067-1.84,3.033-2.973,5.16-2.973h12.255c2.127,0,4.093,1.133,5.16,2.973l6.107,10.536
				c1.072,1.85,1.072,4.132,0,5.982l-6.107,10.536c-1.067,1.84-3.033,2.973-5.16,2.973H82.682
				C80.555,271.494,78.589,270.361,77.523,268.521z"/>
			<path style="clip-path:url(#SVGID_2_);fill:#E0E0E0;" d="M263.713,247.879l-6.107-10.536c-1.072-1.85-1.072-4.132,0-5.982
				l6.107-10.536c1.067-1.84,3.033-2.973,5.16-2.973h12.255c2.127,0,4.093,1.133,5.16,2.973l6.107,10.536
				c1.072,1.85,1.072,4.132,0,5.982l-6.107,10.536c-1.067,1.84-3.033,2.973-5.16,2.973h-12.255
				C266.745,250.852,264.779,249.719,263.713,247.879z"/>
			<path style="clip-path:url(#SVGID_2_);fill:#E0E0E0;" d="M338.308,247.879l-6.107-10.536c-1.072-1.85-1.072-4.132,0-5.982
				l6.107-10.536c1.067-1.84,3.033-2.973,5.16-2.973h12.255c2.127,0,4.093,1.133,5.16,2.973l6.107,10.536
				c1.072,1.85,1.072,4.132,0,5.982l-6.107,10.536c-1.067,1.84-3.033,2.973-5.16,2.973h-12.255
				C341.34,250.852,339.374,249.719,338.308,247.879z"/>
			<path style="clip-path:url(#SVGID_2_);fill:#E0E0E0;" d="M412.903,247.879l-6.107-10.536c-1.072-1.85-1.072-4.132,0-5.982
				l6.107-10.536c1.067-1.84,3.033-2.973,5.16-2.973h12.255c2.127,0,4.093,1.133,5.16,2.973l6.107,10.536
				c1.072,1.85,1.072,4.132,0,5.982l-6.107,10.536c-1.067,1.84-3.033,2.973-5.16,2.973h-12.255
				C415.935,250.852,413.969,249.719,412.903,247.879z"/>
			<path style="clip-path:url(#SVGID_2_);fill:#E0E0E0;" d="M189.118,247.879l-6.107-10.536c-1.072-1.85-1.072-4.132,0-5.982
				l6.107-10.536c1.067-1.84,3.033-2.973,5.16-2.973h12.255c2.127,0,4.093,1.133,5.16,2.973l6.107,10.536
				c1.072,1.85,1.072,4.132,0,5.982l-6.107,10.536c-1.067,1.84-3.033,2.973-5.16,2.973h-12.255
				C192.15,250.852,190.184,249.719,189.118,247.879z"/>
			<path style="clip-path:url(#SVGID_2_);fill:#E0E0E0;" d="M114.523,247.879l-6.107-10.536c-1.072-1.85-1.072-4.132,0-5.982
				l6.107-10.536c1.067-1.84,3.033-2.973,5.16-2.973h12.255c2.127,0,4.093,1.133,5.16,2.973l6.107,10.536
				c1.072,1.85,1.072,4.132,0,5.982l-6.107,10.536c-1.067,1.84-3.033,2.973-5.16,2.973h-12.255
				C117.555,250.852,115.589,249.719,114.523,247.879z"/>
			<path style="clip-path:url(#SVGID_2_);fill:#E0E0E0;" d="M226.713,227.229l-6.107-10.536c-1.072-1.85-1.072-4.132,0-5.982
				l6.107-10.536c1.067-1.84,3.033-2.973,5.16-2.973h12.255c2.127,0,4.093,1.133,5.16,2.973l6.107,10.536
				c1.072,1.85,1.072,4.132,0,5.982l-6.107,10.536c-1.067,1.84-3.033,2.973-5.16,2.973h-12.255
				C229.745,230.202,227.779,229.069,226.713,227.229z"/>
			<path style="clip-path:url(#SVGID_2_);fill:#E0E0E0;" d="M301.308,227.229l-6.107-10.536c-1.072-1.85-1.072-4.132,0-5.982
				l6.107-10.536c1.067-1.84,3.033-2.973,5.16-2.973h12.255c2.127,0,4.093,1.133,5.16,2.973l6.107,10.536
				c1.072,1.85,1.072,4.132,0,5.982l-6.107,10.536c-1.067,1.84-3.033,2.973-5.16,2.973h-12.255
				C304.34,230.202,302.374,229.069,301.308,227.229z"/>
			<path style="clip-path:url(#SVGID_2_);fill:#E0E0E0;" d="M375.903,227.229l-6.107-10.536c-1.072-1.85-1.072-4.132,0-5.982
				l6.107-10.536c1.067-1.84,3.033-2.973,5.16-2.973h12.255c2.127,0,4.093,1.133,5.16,2.973l6.107,10.536
				c1.072,1.85,1.072,4.132,0,5.982l-6.107,10.536c-1.067,1.84-3.033,2.973-5.16,2.973h-12.255
				C378.935,230.202,376.969,229.069,375.903,227.229z"/>
			<path style="clip-path:url(#SVGID_2_);fill:#E0E0E0;" d="M152.118,227.229l-6.107-10.536c-1.072-1.85-1.072-4.132,0-5.982
				l6.107-10.536c1.067-1.84,3.033-2.973,5.16-2.973h12.255c2.127,0,4.093,1.133,5.16,2.973l6.107,10.536
				c1.072,1.85,1.072,4.132,0,5.982l-6.107,10.536c-1.067,1.84-3.033,2.973-5.16,2.973h-12.255
				C155.15,230.202,153.184,229.069,152.118,227.229z"/>
			<path style="clip-path:url(#SVGID_2_);fill:#E0E0E0;" d="M77.523,227.229l-6.107-10.536c-1.072-1.85-1.072-4.132,0-5.982
				l6.107-10.536c1.067-1.84,3.033-2.973,5.16-2.973h12.255c2.127,0,4.093,1.133,5.16,2.973l6.107,10.536
				c1.072,1.85,1.072,4.132,0,5.982l-6.107,10.536c-1.067,1.84-3.033,2.973-5.16,2.973H82.682
				C80.555,230.202,78.589,229.069,77.523,227.229z"/>
			<path style="clip-path:url(#SVGID_2_);fill:#E0E0E0;" d="M263.713,206.596l-6.107-10.536c-1.072-1.85-1.072-4.132,0-5.982
				l6.107-10.536c1.067-1.84,3.033-2.973,5.16-2.973h12.255c2.127,0,4.093,1.133,5.16,2.973l6.107,10.536
				c1.072,1.85,1.072,4.132,0,5.982l-6.107,10.536c-1.067,1.84-3.033,2.973-5.16,2.973h-12.255
				C266.745,209.569,264.779,208.436,263.713,206.596z"/>
			<path style="clip-path:url(#SVGID_2_);fill:#E0E0E0;" d="M338.308,206.596l-6.107-10.536c-1.072-1.85-1.072-4.132,0-5.982
				l6.107-10.536c1.067-1.84,3.033-2.973,5.16-2.973h12.255c2.127,0,4.093,1.133,5.16,2.973l6.107,10.536
				c1.072,1.85,1.072,4.132,0,5.982l-6.107,10.536c-1.067,1.84-3.033,2.973-5.16,2.973h-12.255
				C341.34,209.569,339.374,208.436,338.308,206.596z"/>
			<path style="clip-path:url(#SVGID_2_);fill:#E0E0E0;" d="M412.903,206.596l-6.107-10.536c-1.072-1.85-1.072-4.132,0-5.982
				l6.107-10.536c1.067-1.84,3.033-2.973,5.16-2.973h12.255c2.127,0,4.093,1.133,5.16,2.973l6.107,10.536
				c1.072,1.85,1.072,4.132,0,5.982l-6.107,10.536c-1.067,1.84-3.033,2.973-5.16,2.973h-12.255
				C415.935,209.569,413.969,208.436,412.903,206.596z"/>
			<path style="clip-path:url(#SVGID_2_);fill:#E0E0E0;" d="M189.118,206.596l-6.107-10.536c-1.072-1.85-1.072-4.132,0-5.982
				l6.107-10.536c1.067-1.84,3.033-2.973,5.16-2.973h12.255c2.127,0,4.093,1.133,5.16,2.973l6.107,10.536
				c1.072,1.85,1.072,4.132,0,5.982l-6.107,10.536c-1.067,1.84-3.033,2.973-5.16,2.973h-12.255
				C192.15,209.569,190.184,208.436,189.118,206.596z"/>
			<path style="clip-path:url(#SVGID_2_);fill:#E0E0E0;" d="M114.523,206.596l-6.107-10.536c-1.072-1.85-1.072-4.132,0-5.982
				l6.107-10.536c1.067-1.84,3.033-2.973,5.16-2.973h12.255c2.127,0,4.093,1.133,5.16,2.973l6.107,10.536
				c1.072,1.85,1.072,4.132,0,5.982l-6.107,10.536c-1.067,1.84-3.033,2.973-5.16,2.973h-12.255
				C117.555,209.569,115.589,208.436,114.523,206.596z"/>
			<path style="clip-path:url(#SVGID_2_);fill:#E0E0E0;" d="M226.713,185.937l-6.107-10.536c-1.072-1.85-1.072-4.132,0-5.982
				l6.107-10.536c1.067-1.84,3.033-2.973,5.16-2.973h12.255c2.127,0,4.093,1.133,5.16,2.973l6.107,10.536
				c1.072,1.85,1.072,4.132,0,5.982l-6.107,10.536c-1.067,1.84-3.033,2.973-5.16,2.973h-12.255
				C229.745,188.911,227.779,187.778,226.713,185.937z"/>
			<path style="clip-path:url(#SVGID_2_);fill:#E0E0E0;" d="M301.308,185.937l-6.107-10.536c-1.072-1.85-1.072-4.132,0-5.982
				l6.107-10.536c1.067-1.84,3.033-2.973,5.16-2.973h12.255c2.127,0,4.093,1.133,5.16,2.973l6.107,10.536
				c1.072,1.85,1.072,4.132,0,5.982l-6.107,10.536c-1.067,1.84-3.033,2.973-5.16,2.973h-12.255
				C304.34,188.911,302.374,187.778,301.308,185.937z"/>
			<path style="clip-path:url(#SVGID_2_);fill:#E0E0E0;" d="M375.903,185.937l-6.107-10.536c-1.072-1.85-1.072-4.132,0-5.982
				l6.107-10.536c1.067-1.84,3.033-2.973,5.16-2.973h12.255c2.127,0,4.093,1.133,5.16,2.973l6.107,10.536
				c1.072,1.85,1.072,4.132,0,5.982l-6.107,10.536c-1.067,1.84-3.033,2.973-5.16,2.973h-12.255
				C378.935,188.911,376.969,187.778,375.903,185.937z"/>
			<path style="clip-path:url(#SVGID_2_);fill:#E0E0E0;" d="M152.118,185.937l-6.107-10.536c-1.072-1.85-1.072-4.132,0-5.982
				l6.107-10.536c1.067-1.84,3.033-2.973,5.16-2.973h12.255c2.127,0,4.093,1.133,5.16,2.973l6.107,10.536
				c1.072,1.85,1.072,4.132,0,5.982l-6.107,10.536c-1.067,1.84-3.033,2.973-5.16,2.973h-12.255
				C155.15,188.911,153.184,187.778,152.118,185.937z"/>
			<path style="clip-path:url(#SVGID_2_);fill:#E0E0E0;" d="M77.523,185.937l-6.107-10.536c-1.072-1.85-1.072-4.132,0-5.982
				l6.107-10.536c1.067-1.84,3.033-2.973,5.16-2.973h12.255c2.127,0,4.093,1.133,5.16,2.973l6.107,10.536
				c1.072,1.85,1.072,4.132,0,5.982l-6.107,10.536c-1.067,1.84-3.033,2.973-5.16,2.973H82.682
				C80.555,188.911,78.589,187.778,77.523,185.937z"/>
			<path style="clip-path:url(#SVGID_2_);fill:#E0E0E0;" d="M263.713,165.312l-6.107-10.536c-1.072-1.85-1.072-4.132,0-5.982
				l6.107-10.536c1.067-1.84,3.033-2.973,5.16-2.973h12.255c2.127,0,4.093,1.133,5.16,2.973l6.107,10.536
				c1.072,1.85,1.072,4.132,0,5.982l-6.107,10.536c-1.067,1.84-3.033,2.973-5.16,2.973h-12.255
				C266.745,168.285,264.779,167.152,263.713,165.312z"/>
			<path style="clip-path:url(#SVGID_2_);fill:#E0E0E0;" d="M338.308,165.312l-6.107-10.536c-1.072-1.85-1.072-4.132,0-5.982
				l6.107-10.536c1.067-1.84,3.033-2.973,5.16-2.973h12.255c2.127,0,4.093,1.133,5.16,2.973l6.107,10.536
				c1.072,1.85,1.072,4.132,0,5.982l-6.107,10.536c-1.067,1.84-3.033,2.973-5.16,2.973h-12.255
				C341.34,168.285,339.374,167.152,338.308,165.312z"/>
			<path style="clip-path:url(#SVGID_2_);fill:#E0E0E0;" d="M412.903,165.312l-6.107-10.536c-1.072-1.85-1.072-4.132,0-5.982
				l6.107-10.536c1.067-1.84,3.033-2.973,5.16-2.973h12.255c2.127,0,4.093,1.133,5.16,2.973l6.107,10.536
				c1.072,1.85,1.072,4.132,0,5.982l-6.107,10.536c-1.067,1.84-3.033,2.973-5.16,2.973h-12.255
				C415.935,168.285,413.969,167.152,412.903,165.312z"/>
			<path style="clip-path:url(#SVGID_2_);fill:#E0E0E0;" d="M189.118,165.312l-6.107-10.536c-1.072-1.85-1.072-4.132,0-5.982
				l6.107-10.536c1.067-1.84,3.033-2.973,5.16-2.973h12.255c2.127,0,4.093,1.133,5.16,2.973l6.107,10.536
				c1.072,1.85,1.072,4.132,0,5.982l-6.107,10.536c-1.067,1.84-3.033,2.973-5.16,2.973h-12.255
				C192.15,168.285,190.184,167.152,189.118,165.312z"/>
			<path style="clip-path:url(#SVGID_2_);fill:#E0E0E0;" d="M114.523,165.312l-6.107-10.536c-1.072-1.85-1.072-4.132,0-5.982
				l6.107-10.536c1.067-1.84,3.033-2.973,5.16-2.973h12.255c2.127,0,4.093,1.133,5.16,2.973l6.107,10.536
				c1.072,1.85,1.072,4.132,0,5.982l-6.107,10.536c-1.067,1.84-3.033,2.973-5.16,2.973h-12.255
				C117.555,168.285,115.589,167.152,114.523,165.312z"/>
			<path style="clip-path:url(#SVGID_2_);fill:#E0E0E0;" d="M226.713,144.646l-6.107-10.536c-1.072-1.85-1.072-4.132,0-5.982
				l6.107-10.536c1.067-1.84,3.033-2.973,5.16-2.973h12.255c2.127,0,4.093,1.133,5.16,2.973l6.107,10.536
				c1.072,1.85,1.072,4.132,0,5.982l-6.107,10.536c-1.067,1.84-3.033,2.973-5.16,2.973h-12.255
				C229.745,147.619,227.779,146.486,226.713,144.646z"/>
			<path style="clip-path:url(#SVGID_2_);fill:#E0E0E0;" d="M301.308,144.646L295.2,134.11c-1.072-1.85-1.072-4.132,0-5.982
				l6.107-10.536c1.067-1.84,3.033-2.973,5.16-2.973h12.255c2.127,0,4.093,1.133,5.16,2.973l6.107,10.536
				c1.072,1.85,1.072,4.132,0,5.982l-6.107,10.536c-1.067,1.84-3.033,2.973-5.16,2.973h-12.255
				C304.34,147.619,302.374,146.486,301.308,144.646z"/>
			<path style="clip-path:url(#SVGID_2_);fill:#E0E0E0;" d="M375.903,144.646l-6.107-10.536c-1.072-1.85-1.072-4.132,0-5.982
				l6.107-10.536c1.067-1.84,3.033-2.973,5.16-2.973h12.255c2.127,0,4.093,1.133,5.16,2.973l6.107,10.536
				c1.072,1.85,1.072,4.132,0,5.982l-6.107,10.536c-1.067,1.84-3.033,2.973-5.16,2.973h-12.255
				C378.935,147.619,376.969,146.486,375.903,144.646z"/>
			<path style="clip-path:url(#SVGID_2_);fill:#E0E0E0;" d="M152.118,144.646l-6.107-10.536c-1.072-1.85-1.072-4.132,0-5.982
				l6.107-10.536c1.067-1.84,3.033-2.973,5.16-2.973h12.255c2.127,0,4.093,1.133,5.16,2.973l6.107,10.536
				c1.072,1.85,1.072,4.132,0,5.982l-6.107,10.536c-1.067,1.84-3.033,2.973-5.16,2.973h-12.255
				C155.15,147.619,153.184,146.486,152.118,144.646z"/>
			<path style="clip-path:url(#SVGID_2_);fill:#E0E0E0;" d="M77.523,144.646l-6.107-10.536c-1.072-1.85-1.072-4.132,0-5.982
				l6.107-10.536c1.067-1.84,3.033-2.973,5.16-2.973h12.255c2.127,0,4.093,1.133,5.16,2.973l6.107,10.536
				c1.072,1.85,1.072,4.132,0,5.982l-6.107,10.536c-1.067,1.84-3.033,2.973-5.16,2.973H82.682
				C80.555,147.619,78.589,146.486,77.523,144.646z"/>
			<path style="clip-path:url(#SVGID_2_);fill:#E0E0E0;" d="M263.713,124.029l-6.107-10.536c-1.072-1.85-1.072-4.132,0-5.982
				l6.107-10.536c1.067-1.84,3.033-2.973,5.16-2.973h12.255c2.127,0,4.093,1.133,5.16,2.973l6.107,10.536
				c1.072,1.85,1.072,4.132,0,5.982l-6.107,10.536c-1.067,1.84-3.033,2.973-5.16,2.973h-12.255
				C266.745,127.002,264.779,125.869,263.713,124.029z"/>
			<path style="clip-path:url(#SVGID_2_);fill:#E0E0E0;" d="M338.308,124.029l-6.107-10.536c-1.072-1.85-1.072-4.132,0-5.982
				l6.107-10.536c1.067-1.84,3.033-2.973,5.16-2.973h12.255c2.127,0,4.093,1.133,5.16,2.973l6.107,10.536
				c1.072,1.85,1.072,4.132,0,5.982l-6.107,10.536c-1.067,1.84-3.033,2.973-5.16,2.973h-12.255
				C341.34,127.002,339.374,125.869,338.308,124.029z"/>
			<path style="clip-path:url(#SVGID_2_);fill:#E0E0E0;" d="M412.903,124.029l-6.107-10.536c-1.072-1.85-1.072-4.132,0-5.982
				l6.107-10.536c1.067-1.84,3.033-2.973,5.16-2.973h12.255c2.127,0,4.093,1.133,5.16,2.973l6.107,10.536
				c1.072,1.85,1.072,4.132,0,5.982l-6.107,10.536c-1.067,1.84-3.033,2.973-5.16,2.973h-12.255
				C415.935,127.002,413.969,125.869,412.903,124.029z"/>
			<path style="clip-path:url(#SVGID_2_);fill:#E0E0E0;" d="M189.118,124.029l-6.107-10.536c-1.072-1.85-1.072-4.132,0-5.982
				l6.107-10.536c1.067-1.84,3.033-2.973,5.16-2.973h12.255c2.127,0,4.093,1.133,5.16,2.973l6.107,10.536
				c1.072,1.85,1.072,4.132,0,5.982l-6.107,10.536c-1.067,1.84-3.033,2.973-5.16,2.973h-12.255
				C192.15,127.002,190.184,125.869,189.118,124.029z"/>
			<path style="clip-path:url(#SVGID_2_);fill:#E0E0E0;" d="M114.523,124.029l-6.107-10.536c-1.072-1.85-1.072-4.132,0-5.982
				l6.107-10.536c1.067-1.84,3.033-2.973,5.16-2.973h12.255c2.127,0,4.093,1.133,5.16,2.973l6.107,10.536
				c1.072,1.85,1.072,4.132,0,5.982l-6.107,10.536c-1.067,1.84-3.033,2.973-5.16,2.973h-12.255
				C117.555,127.002,115.589,125.869,114.523,124.029z"/>
			<path style="clip-path:url(#SVGID_2_);fill:#E0E0E0;" d="M226.713,103.354l-6.107-10.536c-1.072-1.85-1.072-4.132,0-5.982
				l6.107-10.536c1.067-1.84,3.033-2.973,5.16-2.973h12.255c2.127,0,4.093,1.133,5.16,2.973l6.107,10.536
				c1.072,1.85,1.072,4.132,0,5.982l-6.107,10.536c-1.067,1.84-3.033,2.973-5.16,2.973h-12.255
				C229.745,106.327,227.779,105.195,226.713,103.354z"/>
			<path style="clip-path:url(#SVGID_2_);fill:#E0E0E0;" d="M301.308,103.354L295.2,92.818c-1.072-1.85-1.072-4.132,0-5.982
				l6.107-10.536c1.067-1.84,3.033-2.973,5.16-2.973h12.255c2.127,0,4.093,1.133,5.16,2.973l6.107,10.536
				c1.072,1.85,1.072,4.132,0,5.982l-6.107,10.536c-1.067,1.84-3.033,2.973-5.16,2.973h-12.255
				C304.34,106.327,302.374,105.195,301.308,103.354z"/>
			<path style="clip-path:url(#SVGID_2_);fill:#E0E0E0;" d="M375.903,103.354l-6.107-10.536c-1.072-1.85-1.072-4.132,0-5.982
				l6.107-10.536c1.067-1.84,3.033-2.973,5.16-2.973h12.255c2.127,0,4.093,1.133,5.16,2.973l6.107,10.536
				c1.072,1.85,1.072,4.132,0,5.982l-6.107,10.536c-1.067,1.84-3.033,2.973-5.16,2.973h-12.255
				C378.935,106.327,376.969,105.195,375.903,103.354z"/>
			<path style="clip-path:url(#SVGID_2_);fill:#E0E0E0;" d="M152.118,103.354l-6.107-10.536c-1.072-1.85-1.072-4.132,0-5.982
				l6.107-10.536c1.067-1.84,3.033-2.973,5.16-2.973h12.255c2.127,0,4.093,1.133,5.16,2.973l6.107,10.536
				c1.072,1.85,1.072,4.132,0,5.982l-6.107,10.536c-1.067,1.84-3.033,2.973-5.16,2.973h-12.255
				C155.15,106.327,153.184,105.195,152.118,103.354z"/>
			<path style="clip-path:url(#SVGID_2_);fill:#E0E0E0;" d="M77.523,103.354l-6.107-10.536c-1.072-1.85-1.072-4.132,0-5.982
				L77.523,76.3c1.067-1.84,3.033-2.973,5.16-2.973h12.255c2.127,0,4.093,1.133,5.16,2.973l6.107,10.536
				c1.072,1.85,1.072,4.132,0,5.982l-6.107,10.536c-1.067,1.84-3.033,2.973-5.16,2.973H82.682
				C80.555,106.327,78.589,105.195,77.523,103.354z"/>
			<path style="clip-path:url(#SVGID_2_);fill:#E0E0E0;" d="M263.713,82.746l-6.107-10.536c-1.072-1.85-1.072-4.132,0-5.982
				l6.107-10.536c1.067-1.84,3.033-2.973,5.16-2.973h12.255c2.127,0,4.093,1.133,5.16,2.973l6.107,10.536
				c1.072,1.85,1.072,4.132,0,5.982l-6.107,10.536c-1.067,1.84-3.033,2.973-5.16,2.973h-12.255
				C266.745,85.719,264.779,84.586,263.713,82.746z"/>
			<path style="clip-path:url(#SVGID_2_);fill:#E0E0E0;" d="M338.308,82.746L332.2,72.209c-1.072-1.85-1.072-4.132,0-5.982
				l6.107-10.536c1.067-1.84,3.033-2.973,5.16-2.973h12.255c2.127,0,4.093,1.133,5.16,2.973l6.107,10.536
				c1.072,1.85,1.072,4.132,0,5.982l-6.107,10.536c-1.067,1.84-3.033,2.973-5.16,2.973h-12.255
				C341.34,85.719,339.374,84.586,338.308,82.746z"/>
			<path style="clip-path:url(#SVGID_2_);fill:#E0E0E0;" d="M412.903,82.746l-6.107-10.536c-1.072-1.85-1.072-4.132,0-5.982
				l6.107-10.536c1.067-1.84,3.033-2.973,5.16-2.973h12.255c2.127,0,4.093,1.133,5.16,2.973l6.107,10.536
				c1.072,1.85,1.072,4.132,0,5.982l-6.107,10.536c-1.067,1.84-3.033,2.973-5.16,2.973h-12.255
				C415.935,85.719,413.969,84.586,412.903,82.746z"/>
			<path style="clip-path:url(#SVGID_2_);fill:#E0E0E0;" d="M189.118,82.746l-6.107-10.536c-1.072-1.85-1.072-4.132,0-5.982
				l6.107-10.536c1.067-1.84,3.033-2.973,5.16-2.973h12.255c2.127,0,4.093,1.133,5.16,2.973l6.107,10.536
				c1.072,1.85,1.072,4.132,0,5.982l-6.107,10.536c-1.067,1.84-3.033,2.973-5.16,2.973h-12.255
				C192.15,85.719,190.184,84.586,189.118,82.746z"/>
			<path style="clip-path:url(#SVGID_2_);fill:#E0E0E0;" d="M114.523,82.746l-6.107-10.536c-1.072-1.85-1.072-4.132,0-5.982
				l6.107-10.536c1.067-1.84,3.033-2.973,5.16-2.973h12.255c2.127,0,4.093,1.133,5.16,2.973l6.107,10.536
				c1.072,1.85,1.072,4.132,0,5.982l-6.107,10.536c-1.067,1.84-3.033,2.973-5.16,2.973h-12.255
				C117.555,85.719,115.589,84.586,114.523,82.746z"/>
			<path style="clip-path:url(#SVGID_2_);fill:#E0E0E0;" d="M263.713,371.729l-6.107-10.536c-1.072-1.85-1.072-4.132,0-5.982
				l6.107-10.536c1.067-1.84,3.033-2.973,5.16-2.973h12.255c2.127,0,4.093,1.133,5.16,2.973l6.107,10.536
				c1.072,1.85,1.072,4.132,0,5.982l-6.107,10.536c-1.067,1.84-3.033,2.973-5.16,2.973h-12.255
				C266.745,374.702,264.779,373.569,263.713,371.729z"/>
			<path style="clip-path:url(#SVGID_2_);fill:#E0E0E0;" d="M338.308,371.729l-6.107-10.536c-1.072-1.85-1.072-4.132,0-5.982
				l6.107-10.536c1.067-1.84,3.033-2.973,5.16-2.973h12.255c2.127,0,4.093,1.133,5.16,2.973l6.107,10.536
				c1.072,1.85,1.072,4.132,0,5.982l-6.107,10.536c-1.067,1.84-3.033,2.973-5.16,2.973h-12.255
				C341.34,374.702,339.374,373.569,338.308,371.729z"/>
			<path style="clip-path:url(#SVGID_2_);fill:#E0E0E0;" d="M412.903,371.729l-6.107-10.536c-1.072-1.85-1.072-4.132,0-5.982
				l6.107-10.536c1.067-1.84,3.033-2.973,5.16-2.973h12.255c2.127,0,4.093,1.133,5.16,2.973l6.107,10.536
				c1.072,1.85,1.072,4.132,0,5.982l-6.107,10.536c-1.067,1.84-3.033,2.973-5.16,2.973h-12.255
				C415.935,374.702,413.969,373.569,412.903,371.729z"/>
			<path style="clip-path:url(#SVGID_2_);fill:#E0E0E0;" d="M189.118,371.729l-6.107-10.536c-1.072-1.85-1.072-4.132,0-5.982
				l6.107-10.536c1.067-1.84,3.033-2.973,5.16-2.973h12.255c2.127,0,4.093,1.133,5.16,2.973l6.107,10.536
				c1.072,1.85,1.072,4.132,0,5.982l-6.107,10.536c-1.067,1.84-3.033,2.973-5.16,2.973h-12.255
				C192.15,374.702,190.184,373.569,189.118,371.729z"/>
			<path style="clip-path:url(#SVGID_2_);fill:#E0E0E0;" d="M114.523,371.729l-6.107-10.536c-1.072-1.85-1.072-4.132,0-5.982
				l6.107-10.536c1.067-1.84,3.033-2.973,5.16-2.973h12.255c2.127,0,4.093,1.133,5.16,2.973l6.107,10.536
				c1.072,1.85,1.072,4.132,0,5.982l-6.107,10.536c-1.067,1.84-3.033,2.973-5.16,2.973h-12.255
				C117.555,374.702,115.589,373.569,114.523,371.729z"/>
			<path style="clip-path:url(#SVGID_2_);fill:#E0E0E0;" d="M226.713,433.687l-6.107-10.536c-1.072-1.85-1.072-4.132,0-5.982
				l6.107-10.536c1.067-1.84,3.033-2.973,5.16-2.973h12.255c2.127,0,4.093,1.133,5.16,2.973l6.107,10.536
				c1.072,1.85,1.072,4.132,0,5.982l-6.107,10.536c-1.067,1.84-3.033,2.973-5.16,2.973h-12.255
				C229.745,436.66,227.779,435.527,226.713,433.687z"/>
			<path style="clip-path:url(#SVGID_2_);fill:#E0E0E0;" d="M301.308,433.687l-6.107-10.536c-1.072-1.85-1.072-4.132,0-5.982
				l6.107-10.536c1.067-1.84,3.033-2.973,5.16-2.973h12.255c2.127,0,4.093,1.133,5.16,2.973l6.107,10.536
				c1.072,1.85,1.072,4.132,0,5.982l-6.107,10.536c-1.067,1.84-3.033,2.973-5.16,2.973h-12.255
				C304.34,436.66,302.374,435.527,301.308,433.687z"/>
			<path style="clip-path:url(#SVGID_2_);fill:#E0E0E0;" d="M375.903,433.687l-6.107-10.536c-1.072-1.85-1.072-4.132,0-5.982
				l6.107-10.536c1.067-1.84,3.033-2.973,5.16-2.973h12.255c2.127,0,4.093,1.133,5.16,2.973l6.107,10.536
				c1.072,1.85,1.072,4.132,0,5.982l-6.107,10.536c-1.067,1.84-3.033,2.973-5.16,2.973h-12.255
				C378.935,436.66,376.969,435.527,375.903,433.687z"/>
			<path style="clip-path:url(#SVGID_2_);fill:#E0E0E0;" d="M152.118,433.687l-6.107-10.536c-1.072-1.85-1.072-4.132,0-5.982
				l6.107-10.536c1.067-1.84,3.033-2.973,5.16-2.973h12.255c2.127,0,4.093,1.133,5.16,2.973l6.107,10.536
				c1.072,1.85,1.072,4.132,0,5.982l-6.107,10.536c-1.067,1.84-3.033,2.973-5.16,2.973h-12.255
				C155.15,436.66,153.184,435.527,152.118,433.687z"/>
			<path style="clip-path:url(#SVGID_2_);fill:#E0E0E0;" d="M77.523,433.687l-6.107-10.536c-1.072-1.85-1.072-4.132,0-5.982
				l6.107-10.536c1.067-1.84,3.033-2.973,5.16-2.973h12.255c2.127,0,4.093,1.133,5.16,2.973l6.107,10.536
				c1.072,1.85,1.072,4.132,0,5.982l-6.107,10.536c-1.067,1.84-3.033,2.973-5.16,2.973H82.682
				C80.555,436.66,78.589,435.527,77.523,433.687z"/>
			<path style="clip-path:url(#SVGID_2_);fill:#E0E0E0;" d="M263.713,413.012l-6.107-10.536c-1.072-1.85-1.072-4.132,0-5.982
				l6.107-10.536c1.067-1.84,3.033-2.973,5.16-2.973h12.255c2.127,0,4.093,1.133,5.16,2.973l6.107,10.536
				c1.072,1.85,1.072,4.132,0,5.982l-6.107,10.536c-1.067,1.84-3.033,2.973-5.16,2.973h-12.255
				C266.745,415.985,264.779,414.852,263.713,413.012z"/>
			<path style="clip-path:url(#SVGID_2_);fill:#E0E0E0;" d="M338.308,413.012l-6.107-10.536c-1.072-1.85-1.072-4.132,0-5.982
				l6.107-10.536c1.067-1.84,3.033-2.973,5.16-2.973h12.255c2.127,0,4.093,1.133,5.16,2.973l6.107,10.536
				c1.072,1.85,1.072,4.132,0,5.982l-6.107,10.536c-1.067,1.84-3.033,2.973-5.16,2.973h-12.255
				C341.34,415.985,339.374,414.852,338.308,413.012z"/>
			<path style="clip-path:url(#SVGID_2_);fill:#E0E0E0;" d="M412.903,413.012l-6.107-10.536c-1.072-1.85-1.072-4.132,0-5.982
				l6.107-10.536c1.067-1.84,3.033-2.973,5.16-2.973h12.255c2.127,0,4.093,1.133,5.16,2.973l6.107,10.536
				c1.072,1.85,1.072,4.132,0,5.982l-6.107,10.536c-1.067,1.84-3.033,2.973-5.16,2.973h-12.255
				C415.935,415.985,413.969,414.852,412.903,413.012z"/>
			<path style="clip-path:url(#SVGID_2_);fill:#E0E0E0;" d="M189.118,413.012l-6.107-10.536c-1.072-1.85-1.072-4.132,0-5.982
				l6.107-10.536c1.067-1.84,3.033-2.973,5.16-2.973h12.255c2.127,0,4.093,1.133,5.16,2.973l6.107,10.536
				c1.072,1.85,1.072,4.132,0,5.982l-6.107,10.536c-1.067,1.84-3.033,2.973-5.16,2.973h-12.255
				C192.15,415.985,190.184,414.852,189.118,413.012z"/>
			<path style="clip-path:url(#SVGID_2_);fill:#E0E0E0;" d="M114.523,413.012l-6.107-10.536c-1.072-1.85-1.072-4.132,0-5.982
				l6.107-10.536c1.067-1.84,3.033-2.973,5.16-2.973h12.255c2.127,0,4.093,1.133,5.16,2.973l6.107,10.536
				c1.072,1.85,1.072,4.132,0,5.982l-6.107,10.536c-1.067,1.84-3.033,2.973-5.16,2.973h-12.255
				C117.555,415.985,115.589,414.852,114.523,413.012z"/>
			<path style="clip-path:url(#SVGID_2_);fill:#E0E0E0;" d="M226.713,392.395l-6.107-10.536c-1.072-1.85-1.072-4.132,0-5.982
				l6.107-10.536c1.067-1.84,3.033-2.973,5.16-2.973h12.255c2.127,0,4.093,1.133,5.16,2.973l6.107,10.536
				c1.072,1.85,1.072,4.132,0,5.982l-6.107,10.536c-1.067,1.84-3.033,2.973-5.16,2.973h-12.255
				C229.745,395.368,227.779,394.235,226.713,392.395z"/>
			<path style="clip-path:url(#SVGID_2_);fill:#E0E0E0;" d="M301.308,392.395l-6.107-10.536c-1.072-1.85-1.072-4.132,0-5.982
				l6.107-10.536c1.067-1.84,3.033-2.973,5.16-2.973h12.255c2.127,0,4.093,1.133,5.16,2.973l6.107,10.536
				c1.072,1.85,1.072,4.132,0,5.982l-6.107,10.536c-1.067,1.84-3.033,2.973-5.16,2.973h-12.255
				C304.34,395.368,302.374,394.235,301.308,392.395z"/>
			<path style="clip-path:url(#SVGID_2_);fill:#E0E0E0;" d="M375.903,392.395l-6.107-10.536c-1.072-1.85-1.072-4.132,0-5.982
				l6.107-10.536c1.067-1.84,3.033-2.973,5.16-2.973h12.255c2.127,0,4.093,1.133,5.16,2.973l6.107,10.536
				c1.072,1.85,1.072,4.132,0,5.982l-6.107,10.536c-1.067,1.84-3.033,2.973-5.16,2.973h-12.255
				C378.935,395.368,376.969,394.235,375.903,392.395z"/>
			<path style="clip-path:url(#SVGID_2_);fill:#E0E0E0;" d="M152.118,392.395l-6.107-10.536c-1.072-1.85-1.072-4.132,0-5.982
				l6.107-10.536c1.067-1.84,3.033-2.973,5.16-2.973h12.255c2.127,0,4.093,1.133,5.16,2.973l6.107,10.536
				c1.072,1.85,1.072,4.132,0,5.982l-6.107,10.536c-1.067,1.84-3.033,2.973-5.16,2.973h-12.255
				C155.15,395.368,153.184,394.235,152.118,392.395z"/>
			<path style="clip-path:url(#SVGID_2_);fill:#E0E0E0;" d="M77.523,392.395l-6.107-10.536c-1.072-1.85-1.072-4.132,0-5.982
				l6.107-10.536c1.067-1.84,3.033-2.973,5.16-2.973h12.255c2.127,0,4.093,1.133,5.16,2.973l6.107,10.536
				c1.072,1.85,1.072,4.132,0,5.982l-6.107,10.536c-1.067,1.84-3.033,2.973-5.16,2.973H82.682
				C80.555,395.368,78.589,394.235,77.523,392.395z"/>
			<path style="clip-path:url(#SVGID_2_);fill:#E0E0E0;" d="M263.713,454.295l-6.107-10.536c-1.072-1.85-1.072-4.132,0-5.982
				l6.107-10.536c1.067-1.84,3.033-2.973,5.16-2.973h12.255c2.127,0,4.093,1.133,5.16,2.973l6.107,10.536
				c1.072,1.85,1.072,4.132,0,5.982l-6.107,10.536c-1.067,1.84-3.033,2.973-5.16,2.973h-12.255
				C266.745,457.268,264.779,456.136,263.713,454.295z"/>
			<path style="clip-path:url(#SVGID_2_);fill:#E0E0E0;" d="M338.308,454.295l-6.107-10.536c-1.072-1.85-1.072-4.132,0-5.982
				l6.107-10.536c1.067-1.84,3.033-2.973,5.16-2.973h12.255c2.127,0,4.093,1.133,5.16,2.973l6.107,10.536
				c1.072,1.85,1.072,4.132,0,5.982l-6.107,10.536c-1.067,1.84-3.033,2.973-5.16,2.973h-12.255
				C341.34,457.268,339.374,456.136,338.308,454.295z"/>
			<path style="clip-path:url(#SVGID_2_);fill:#E0E0E0;" d="M412.903,454.295l-6.107-10.536c-1.072-1.85-1.072-4.132,0-5.982
				l6.107-10.536c1.067-1.84,3.033-2.973,5.16-2.973h12.255c2.127,0,4.093,1.133,5.16,2.973l6.107,10.536
				c1.072,1.85,1.072,4.132,0,5.982l-6.107,10.536c-1.067,1.84-3.033,2.973-5.16,2.973h-12.255
				C415.935,457.268,413.969,456.136,412.903,454.295z"/>
			<path style="clip-path:url(#SVGID_2_);fill:#E0E0E0;" d="M189.118,454.295l-6.107-10.536c-1.072-1.85-1.072-4.132,0-5.982
				l6.107-10.536c1.067-1.84,3.033-2.973,5.16-2.973h12.255c2.127,0,4.093,1.133,5.16,2.973l6.107,10.536
				c1.072,1.85,1.072,4.132,0,5.982l-6.107,10.536c-1.067,1.84-3.033,2.973-5.16,2.973h-12.255
				C192.15,457.268,190.184,456.136,189.118,454.295z"/>
			<path style="clip-path:url(#SVGID_2_);fill:#E0E0E0;" d="M114.523,454.295l-6.107-10.536c-1.072-1.85-1.072-4.132,0-5.982
				l6.107-10.536c1.067-1.84,3.033-2.973,5.16-2.973h12.255c2.127,0,4.093,1.133,5.16,2.973l6.107,10.536
				c1.072,1.85,1.072,4.132,0,5.982l-6.107,10.536c-1.067,1.84-3.033,2.973-5.16,2.973h-12.255
				C117.555,457.268,115.589,456.136,114.523,454.295z"/>
		</g>
		<g>
			<path style="fill:#424242;" d="M256,70c49.683,0,96.391,19.347,131.522,54.478S442,206.317,442,256
				s-19.347,96.391-54.478,131.522S305.683,442,256,442s-96.391-19.347-131.522-54.478S70,305.683,70,256
				s19.347-96.391,54.478-131.522S206.317,70,256,70 M256,56C145.543,56,56,145.543,56,256s89.543,200,200,200s200-89.543,200-200
				S366.457,56,256,56L256,56z"/>
		</g>
	</g>
</g>
<g id="Layer_1">
</g>
</svg>